<?xml version="1.0" standalone="no"?>
<!DOCTYPE svg PUBLIC "-//W3C//DTD SVG 20010904//EN"
 "http://www.w3.org/TR/2001/REC-SVG-20010904/DTD/svg10.dtd">
<svg version="1.0" xmlns="http://www.w3.org/2000/svg"
 width="290.000000pt" height="290.000000pt" viewBox="0 0 290.000000 290.000000"
 preserveAspectRatio="xMidYMid meet">
<metadata>
Created by potrace 1.14, written by Peter Selinger 2001-2017
</metadata>
<g transform="translate(0.000000,290.000000) scale(0.100000,-0.100000)"
fill="#000000" stroke="none">
<path d="M637 2874 c-311 -57 -558 -308 -612 -622 -14 -78 -15 -197 -13 -849
4 -757 4 -758 27 -833 40 -134 96 -225 201 -330 106 -106 197 -161 330 -201
70 -21 97 -23 438 -27 l362 -4 0 841 0 841 349 0 c449 0 519 -12 667 -116 150
-105 235 -304 221 -514 -20 -275 -171 -469 -417 -535 -52 -14 -122 -18 -352
-22 l-288 -5 0 -245 0 -245 353 4 c329 4 357 6 427 27 135 41 225 95 330 201
108 107 162 197 202 336 l23 79 0 795 0 795 -23 80 c-40 136 -94 227 -202 335
-105 105 -196 161 -330 201 l-75 23 -770 2 c-633 2 -784 0 -848 -12z"/>
<path d="M1550 1096 l0 -436 228 0 c277 0 344 9 439 55 153 75 221 209 211
414 -8 149 -55 244 -158 322 -90 67 -119 72 -437 77 l-283 3 0 -435z"/>
</g>
</svg>
